<mxfile host="app.diagrams.net" modified="2020-10-16T03:00:54.832Z" agent="5.0 (Windows NT 10.0; Win64; x64) AppleWebKit/537.36 (KHTML, like Gecko) Chrome/86.0.4240.75 Safari/537.36" etag="FB_Dcr5bkaDt2KNvvtBG" version="13.8.0" type="github">
  <diagram id="C5RBs43oDa-KdzZeNtuy" name="Page-1">
    <mxGraphModel dx="868" dy="450" grid="1" gridSize="11" guides="1" tooltips="1" connect="1" arrows="1" fold="1" page="1" pageScale="1" pageWidth="827" pageHeight="1169" math="0" shadow="0">
      <root>
        <mxCell id="WIyWlLk6GJQsqaUBKTNV-0" />
        <mxCell id="WIyWlLk6GJQsqaUBKTNV-1" parent="WIyWlLk6GJQsqaUBKTNV-0" />
        <mxCell id="Sy_BXa0TpPN3FQGAggwm-27" value="Fecha" style="swimlane;fontStyle=1;childLayout=stackLayout;horizontal=1;startSize=26;horizontalStack=0;resizeParent=1;resizeParentMax=0;resizeLast=0;collapsible=1;marginBottom=0;rotation=0;fillColor=none;" vertex="1" parent="WIyWlLk6GJQsqaUBKTNV-1">
          <mxGeometry x="220" y="176" width="143" height="97" as="geometry">
            <mxRectangle x="341" y="231" width="99" height="26" as="alternateBounds" />
          </mxGeometry>
        </mxCell>
        <mxCell id="Sy_BXa0TpPN3FQGAggwm-32" value="INT DIA" style="text;html=1;resizable=0;autosize=1;align=center;verticalAlign=middle;points=[];fillColor=none;strokeColor=none;rounded=0;" vertex="1" parent="Sy_BXa0TpPN3FQGAggwm-27">
          <mxGeometry y="26" width="143" height="22" as="geometry" />
        </mxCell>
        <mxCell id="Sy_BXa0TpPN3FQGAggwm-29" value="INT MES" style="text;strokeColor=none;fillColor=none;align=center;verticalAlign=top;spacingLeft=4;spacingRight=4;overflow=hidden;rotatable=0;points=[[0,0.5],[1,0.5]];portConstraint=eastwest;rotation=0;" vertex="1" parent="Sy_BXa0TpPN3FQGAggwm-27">
          <mxGeometry y="48" width="143" height="26" as="geometry" />
        </mxCell>
        <mxCell id="Sy_BXa0TpPN3FQGAggwm-30" value="INT ANIO" style="text;strokeColor=none;fillColor=none;align=center;verticalAlign=top;spacingLeft=4;spacingRight=4;overflow=hidden;rotatable=0;points=[[0,0.5],[1,0.5]];portConstraint=eastwest;rotation=0;" vertex="1" parent="Sy_BXa0TpPN3FQGAggwm-27">
          <mxGeometry y="74" width="143" height="23" as="geometry" />
        </mxCell>
        <mxCell id="Sy_BXa0TpPN3FQGAggwm-33" value="PRODUCTO" style="swimlane;fontStyle=1;childLayout=stackLayout;horizontal=1;startSize=26;fillColor=none;horizontalStack=0;resizeParent=1;resizeParentMax=0;resizeLast=0;collapsible=1;marginBottom=0;align=center;" vertex="1" parent="WIyWlLk6GJQsqaUBKTNV-1">
          <mxGeometry x="517" y="122" width="154" height="205" as="geometry" />
        </mxCell>
        <mxCell id="Sy_BXa0TpPN3FQGAggwm-34" value="INT CANTIDAD" style="text;strokeColor=none;fillColor=none;align=center;verticalAlign=top;spacingLeft=4;spacingRight=4;overflow=hidden;rotatable=0;points=[[0,0.5],[1,0.5]];portConstraint=eastwest;" vertex="1" parent="Sy_BXa0TpPN3FQGAggwm-33">
          <mxGeometry y="26" width="154" height="26" as="geometry" />
        </mxCell>
        <mxCell id="Sy_BXa0TpPN3FQGAggwm-35" value="INT CANTIDAD_MINIMA" style="text;strokeColor=none;fillColor=none;align=left;verticalAlign=top;spacingLeft=4;spacingRight=4;overflow=hidden;rotatable=0;points=[[0,0.5],[1,0.5]];portConstraint=eastwest;" vertex="1" parent="Sy_BXa0TpPN3FQGAggwm-33">
          <mxGeometry y="52" width="154" height="26" as="geometry" />
        </mxCell>
        <mxCell id="Sy_BXa0TpPN3FQGAggwm-51" value="FECHA ACTUAL" style="text;html=1;strokeColor=none;fillColor=none;align=center;verticalAlign=middle;whiteSpace=wrap;rounded=0;fontSize=12;" vertex="1" parent="Sy_BXa0TpPN3FQGAggwm-33">
          <mxGeometry y="78" width="154" height="20" as="geometry" />
        </mxCell>
        <mxCell id="Sy_BXa0TpPN3FQGAggwm-46" value="INT ID" style="text;html=1;strokeColor=none;fillColor=none;align=center;verticalAlign=middle;whiteSpace=wrap;rounded=0;" vertex="1" parent="Sy_BXa0TpPN3FQGAggwm-33">
          <mxGeometry y="98" width="154" height="20" as="geometry" />
        </mxCell>
        <mxCell id="Sy_BXa0TpPN3FQGAggwm-50" value="BOOL ESTADO" style="text;html=1;strokeColor=none;fillColor=none;align=center;verticalAlign=middle;whiteSpace=wrap;rounded=0;fontSize=12;" vertex="1" parent="Sy_BXa0TpPN3FQGAggwm-33">
          <mxGeometry y="118" width="154" height="20" as="geometry" />
        </mxCell>
        <mxCell id="Sy_BXa0TpPN3FQGAggwm-36" value="FLOAT PRECIO" style="text;strokeColor=none;fillColor=none;align=center;verticalAlign=top;spacingLeft=4;spacingRight=4;overflow=hidden;rotatable=0;points=[[0,0.5],[1,0.5]];portConstraint=eastwest;fontSize=12;" vertex="1" parent="Sy_BXa0TpPN3FQGAggwm-33">
          <mxGeometry y="138" width="154" height="27" as="geometry" />
        </mxCell>
        <mxCell id="Sy_BXa0TpPN3FQGAggwm-47" value="CHAR NOMBRE" style="text;html=1;strokeColor=none;fillColor=none;align=center;verticalAlign=middle;whiteSpace=wrap;rounded=0;fontSize=12;" vertex="1" parent="Sy_BXa0TpPN3FQGAggwm-33">
          <mxGeometry y="165" width="154" height="20" as="geometry" />
        </mxCell>
        <mxCell id="Sy_BXa0TpPN3FQGAggwm-44" value="INT CANTIDAD_MINIMA" style="text;html=1;strokeColor=none;fillColor=none;align=center;verticalAlign=middle;whiteSpace=wrap;rounded=0;" vertex="1" parent="Sy_BXa0TpPN3FQGAggwm-33">
          <mxGeometry y="185" width="154" height="20" as="geometry" />
        </mxCell>
        <mxCell id="Sy_BXa0TpPN3FQGAggwm-53" style="edgeStyle=orthogonalEdgeStyle;rounded=0;orthogonalLoop=1;jettySize=auto;html=1;exitX=1;exitY=0.5;exitDx=0;exitDy=0;entryX=0;entryY=0.25;entryDx=0;entryDy=0;fontSize=12;" edge="1" parent="WIyWlLk6GJQsqaUBKTNV-1" source="Sy_BXa0TpPN3FQGAggwm-29" target="Sy_BXa0TpPN3FQGAggwm-46">
          <mxGeometry relative="1" as="geometry" />
        </mxCell>
      </root>
    </mxGraphModel>
  </diagram>
</mxfile>
